Coordinates
version=1
nRows=31
nColumns=38
inDegrees=no

Units are S.I. units (second, meters, Newtons, ...)
If the header above contains a line with 'inDegrees', this indicates whether rotational values are in degrees (yes) or radians (no).

endheader
time	pelvis_tilt	pelvis_list	pelvis_rotation	pelvis_tx	pelvis_ty	pelvis_tz	hip_flexion_r	hip_adduction_r	hip_rotation_r	knee_angle_r	ankle_angle_r	subtalar_angle_r	mtp_angle_r	hip_flexion_l	hip_adduction_l	hip_rotation_l	knee_angle_l	ankle_angle_l	subtalar_angle_l	mtp_angle_l	lumbar_extension	lumbar_bending	lumbar_rotation	arm_flex_r	arm_add_r	arm_rot_r	elbow_flex_r	pro_sup_r	wrist_flex_r	wrist_dev_r	arm_flex_l	arm_add_l	arm_rot_l	elbow_flex_l	pro_sup_l	wrist_flex_l	wrist_dev_l
0.52	2.60025	1.44816	-1.05883	0.704997	0.692711	1.02852	0.163744	0.153884	-0.0811237	0.701039	-0.0267741	0	0	0.0905561	-0.0978349	-0.0937578	1.36194	-0.155282	0	0	-0.52613	0.0748683	0.179094	-0.155573	-0.255914	0.0956481	0.568278	1.46541	0	0	0.0554044	-0.304996	0.638981	0.428462	1.0925	0	0
0.53	2.62056	1.45244	-1.08154	0.705859	0.703192	1.02997	0.148419	0.149083	-0.0828926	0.688601	-0.0239285	0	0	0.117315	-0.0949123	-0.0945377	1.35881	-0.144007	0	0	-0.538157	0.0608773	0.22078	-0.168647	-0.256713	0.0878079	0.569768	1.44034	0	0	0.0850638	-0.302721	0.665576	0.430657	1.10017	0	0
0.54	2.67546	1.44543	-1.13884	0.706627	0.712918	1.03179	0.119734	0.145996	-0.0848647	0.673919	-0.0217745	0	0	0.130654	-0.0951957	-0.0997087	1.35039	-0.134715	0	0	-0.530391	0.0659268	0.183398	-0.150835	-0.260925	0.112381	0.565366	1.44547	0	0	0.0643823	-0.303135	0.650444	0.420889	1.08399	0	0
0.55	2.69235	1.44859	-1.15778	0.707279	0.723333	1.03304	0.101902	0.143039	-0.0874796	0.657151	-0.017532	0	0	0.15475	-0.0944097	-0.104503	1.33591	-0.124422	0	0	-0.543733	0.0535356	0.227015	-0.168591	-0.263572	0.100742	0.574588	1.40934	0	0	0.0952	-0.299798	0.676427	0.423057	1.09944	0	0
0.56	2.72315	1.44818	-1.19065	0.70777	0.733396	1.03428	0.0818932	0.138345	-0.0910062	0.643549	-0.0159566	0	0	0.173241	-0.0931892	-0.109368	1.31647	-0.11687	0	0	-0.542546	0.0502677	0.223669	-0.164258	-0.26727	0.113631	0.572456	1.40612	0	0	0.0940127	-0.29939	0.671898	0.422472	1.09679	0	0
0.57	2.76439	1.44315	-1.23453	0.708147	0.743116	1.03564	0.0568954	0.133819	-0.0932971	0.629928	-0.0144308	0	0	0.184767	-0.0925712	-0.115676	1.29172	-0.110042	0	0	-0.534306	0.0544488	0.190709	-0.149133	-0.273182	0.13849	0.571247	1.40814	0	0	0.074494	-0.299818	0.65428	0.416141	1.08629	0	0
0.58	2.78434	1.44422	-1.25725	0.708573	0.75328	1.03664	0.0380931	0.13038	-0.0927105	0.614495	-0.0123081	0	0	0.201507	-0.0921166	-0.122051	1.26157	-0.103722	0	0	-0.541997	0.0467464	0.213843	-0.161739	-0.265207	0.0911621	0.57821	1.44946	0	0	0.0932942	-0.303841	0.699612	0.423531	1.05707	0	0
0.59	2.81125	1.4414	-1.28787	0.70905	0.762982	1.0375	0.0166358	0.127289	-0.0911744	0.602163	-0.0109371	0	0	0.212896	-0.0924095	-0.130792	1.22728	-0.0991224	0	0	-0.534528	0.0491731	0.190143	-0.151199	-0.269251	0.105197	0.579384	1.45175	0	0	0.0783356	-0.304177	0.686828	0.420079	1.04726	0	0
0.6	2.80792	1.44304	-1.2909	0.709825	0.773548	1.03802	-0.00113342	0.127429	-0.0859044	0.586006	-0.00888811	0	0	0.230473	-0.110628	-0.171454	1.19385	-0.102508	0	0	-0.546359	0.0390824	0.231262	-0.168916	-0.274152	0.0964185	0.592006	1.4218	0	0	0.0999695	-0.300829	0.697728	0.428482	1.0629	0	0
0.61	2.83945	1.44194	-1.32506	0.710122	0.782837	1.03876	-0.0206	0.123197	-0.0828797	0.572356	-0.00739542	0	0	0.237103	-0.097068	-0.157761	1.14228	-0.0951176	0	0	-0.539141	0.0406413	0.205683	-0.154737	-0.279	0.116327	0.59022	1.42132	0	0	0.085613	-0.300404	0.681679	0.424303	1.05513	0	0
0.62	2.82471	1.43597	-1.32089	0.711201	0.793711	1.03917	-0.047914	0.126921	-0.0736221	0.553168	-0.00599323	0	0	0.244717	-0.139885	-0.24696	1.11078	-0.114202	0	0	-0.546068	0.0377659	0.222696	-0.154549	-0.309227	0.203557	0.602277	1.29613	0	0	0.0809744	-0.291413	0.630969	0.428191	1.10703	0	0
0.63	2.84025	1.42498	-1.34657	0.712136	0.804108	1.03999	-0.0808149	0.12611	-0.0677249	0.534403	-0.00603369	0	0	0.237135	-0.177565	-0.34017	1.06854	-0.136552	0	0	-0.556631	0.0360309	0.229966	-0.166972	-0.285304	0.100603	0.611502	1.42605	0	0	0.0864906	-0.299068	0.68751	0.434168	1.04706	0	0
0.64	2.8754	1.43648	-1.37721	0.711734	0.812506	1.03975	-0.0830737	0.117188	-0.0718158	0.526643	-0.00491215	0	0	0.252987	-0.120215	-0.244124	0.98781	-0.120447	0	0	-0.544668	0.0330382	0.210664	-0.152134	-0.281734	0.101413	0.599342	1.44393	0	0	0.0858662	-0.296917	0.686865	0.425266	1.03811	0	0
0.65	2.86391	1.4262	-1.37894	0.712714	0.82391	1.03997	-0.116272	0.118277	-0.067163	0.505228	-0.00559104	0	0	0.243442	-0.183804	-0.40102	0.953461	-0.157805	0	0	-0.558089	0.0289119	0.236837	-0.165544	-0.283993	0.0838868	0.611735	1.44989	0	0	0.0928891	-0.293134	0.697377	0.427213	1.04542	0	0
0.66	2.98028	1.44483	-1.48218	0.711667	0.830223	1.04052	-0.106162	0.0975726	-0.0774046	0.505503	-0.00741277	0	0	0.228918	-0.0515294	-0.142794	0.76923	-0.117579	0	0	-0.544977	0.0178687	0.201824	-0.135981	-0.276103	0.0895556	0.586337	1.46528	0	0	0.0989776	-0.289267	0.692402	0.408574	1.04293	0	0
0.67	2.99474	1.44964	-1.50046	0.711827	0.839971	1.04014	-0.116709	0.0923112	-0.0783023	0.495192	-0.00787794	0	0	0.223482	-0.0446549	-0.143578	0.676064	-0.126859	0	0	-0.548597	0.0102433	0.219966	-0.140368	-0.276472	0.0788299	0.587342	1.46551	0	0	0.112108	-0.284469	0.699408	0.406724	1.05147	0	0
0.68	3.00398	1.44844	-1.5135	0.711853	0.849694	1.03987	-0.135238	0.0884525	-0.0811343	0.480288	-0.00926848	0	0	0.212472	-0.0402592	-0.151118	0.584878	-0.147489	0	0	-0.552593	0.00789524	0.223489	-0.138756	-0.287549	0.10426	0.592827	1.42529	0	0	0.109733	-0.272605	0.644436	0.400646	1.11168	0	0
0.69	3.00138	1.44855	-1.51431	0.711814	0.859555	1.03893	-0.151616	0.0863136	-0.0853571	0.468062	-0.00783192	0	0	0.205598	-0.0377751	-0.160652	0.503001	-0.16423	0	0	-0.548708	0.00997821	0.214557	-0.132174	-0.287562	0.101454	0.589923	1.44762	0	0	0.103743	-0.271843	0.641947	0.39945	1.09957	0	0
0.7	2.98434	1.45784	-1.50069	0.711689	0.869979	1.03713	-0.157444	0.0852726	-0.0890128	0.458622	-0.00635634	0	0	0.210437	-0.0364926	-0.169859	0.429454	-0.177861	0	0	-0.549058	0.00432727	0.242787	-0.145003	-0.287882	0.0817802	0.594547	1.4465	0	0	0.118738	-0.267496	0.654337	0.402452	1.10542	0	0
0.71	2.97264	1.4569	-1.4923	0.711321	0.87983	1.03563	-0.173053	0.0834596	-0.0971051	0.450252	-0.00381899	0	0	0.204091	-0.033989	-0.174539	0.358614	-0.198419	0	0	-0.541305	0.0115401	0.221814	-0.136737	-0.290173	0.0837742	0.597443	1.46494	0	0	0.104498	-0.266545	0.644868	0.398195	1.09287	0	0
0.72	2.95864	1.46586	-1.48007	0.710844	0.890293	1.03341	-0.17749	0.0812632	-0.103012	0.444569	-0.00129913	0	0	0.212267	-0.031105	-0.178692	0.305857	-0.207884	0	0	-0.538666	0.00821648	0.239291	-0.145902	-0.291629	0.071755	0.60169	1.46509	0	0	0.113222	-0.263014	0.652399	0.399952	1.09832	0	0
0.73	2.9598	1.4677	-1.48234	0.710198	0.900507	1.03147	-0.188707	0.0777252	-0.109017	0.441065	0.00305984	0	0	0.21134	-0.0255169	-0.177464	0.253869	-0.220959	0	0	-0.532323	0.0119775	0.226304	-0.141376	-0.293765	0.0729254	0.603268	1.47705	0	0	0.104976	-0.261187	0.646257	0.396567	1.09398	0	0
0.74	2.95382	1.47706	-1.47916	0.709592	0.911256	1.02917	-0.191179	0.0739143	-0.112093	0.439715	0.00642004	0	0	0.219324	-0.0201143	-0.177683	0.211456	-0.229527	0	0	-0.531594	0.00497419	0.249076	-0.143015	-0.331579	0.185407	0.609941	1.30485	0	0	0.109976	-0.245417	0.583568	0.393344	1.17581	0	0
0.75	2.96751	1.47674	-1.49565	0.709063	0.921777	1.02737	-0.204672	0.0691159	-0.11635	0.436008	0.00918703	0	0	0.216579	-0.0137936	-0.177543	0.1746	-0.236433	0	0	-0.533904	0.00377061	0.251491	-0.154847	-0.299422	0.0626281	0.611929	1.46598	0	0	0.112873	-0.246842	0.610717	0.394398	1.14809	0	0
0.76	2.98472	1.4719	-1.51664	0.708632	0.932238	1.02576	-0.222143	0.0639829	-0.118723	0.434313	0.0108461	0	0	0.211478	-0.00923065	-0.182437	0.152214	-0.237012	0	0	-0.529232	0.00845338	0.226397	-0.143009	-0.305546	0.0846169	0.612735	1.46096	0	0	0.0978243	-0.248445	0.611775	0.389845	1.12707	0	0
0.77	3.00467	1.47586	-1.54029	0.708435	0.943388	1.02393	-0.230047	0.0584448	-0.116286	0.433838	0.0115107	0	0	0.216138	-0.00410023	-0.185759	0.138474	-0.23864	0	0	-0.53426	-0.00116544	0.249274	-0.152948	-0.304766	0.0719579	0.613867	1.45983	0	0	0.109276	-0.245455	0.620203	0.392866	1.1326	0	0
0.78	3.02928	1.46771	-1.56963	0.708369	0.953977	1.02277	-0.249195	0.0523576	-0.113012	0.436138	0.0128629	0	0	0.206409	0.00119967	-0.187135	0.126725	-0.244374	0	0	-0.535768	0.000442154	0.229936	-0.14442	-0.305492	0.0754113	0.616327	1.47448	0	0	0.0963257	-0.246155	0.61145	0.390891	1.12448	0	0
0.79	3.05436	1.46991	-1.59939	0.708522	0.965318	1.0211	-0.256447	0.0461539	-0.108708	0.440944	0.0130376	0	0	0.208626	0.0063617	-0.18664	0.125833	-0.247381	0	0	-0.542216	-0.0104682	0.25312	-0.154248	-0.303276	0.0610008	0.617289	1.47257	0	0	0.106833	-0.244574	0.619235	0.395797	1.13143	0	0
0.8	3.0745	1.46582	-1.62499	0.708622	0.976483	1.01971	-0.269594	0.0397648	-0.104108	0.446664	0.013146	0	0	0.204288	0.0109751	-0.18593	0.132997	-0.249001	0	0	-0.544454	-0.0138536	0.249602	-0.150671	-0.31233	0.0905671	0.619852	1.43305	0	0	0.098265	-0.240273	0.585566	0.395192	1.16069	0	0
0.81	3.09395	1.46151	-1.6501	0.70869	0.987899	1.01825	-0.282343	0.0328168	-0.0997321	0.453828	0.0125427	0	0	0.2003	0.0156069	-0.185383	0.149301	-0.24771	0	0	-0.542062	-0.0154172	0.236898	-0.142872	-0.309798	0.0914603	0.614447	1.45559	0	0	0.0859256	-0.241902	0.578643	0.39601	1.14882	0	0
0.82	3.11534	1.46281	-1.6762	0.708715	0.999856	1.01657	-0.288696	0.0262665	-0.0949118	0.462304	0.0110883	0	0	0.20199	0.0205212	-0.181309	0.170976	-0.250909	0	0	-0.545249	-0.0243797	0.254562	-0.151014	-0.307173	0.0793631	0.613193	1.45722	0	0	0.0914928	-0.241312	0.585784	0.399745	1.15396	0	0
